<svg xmlns="http://www.w3.org/2000/svg" width="1100" height="520" viewBox="0 0 1100 520" role="img">
<title>Holon Runtime · 常驻后台与多端连接</title>
<defs><marker id="arrow" markerWidth="8" markerHeight="8" refX="6" refY="3" orient="auto-start-reverse"><path d="M0 0L6 3L0 6" fill="none" stroke="#285fa7" stroke-width="1.3"/></marker></defs>
<rect width="1100" height="520" fill="#fff"/>
<g font-family="Noto Sans CJK SC, sans-serif">
<text x="48" y="32" font-size="15" fill="#536b87" font-weight="500" text-anchor="start">连接入口</text>
<rect x="185" y="48" width="190" height="58" rx="5" fill="#fff" stroke="#b8c6d6" stroke-width="1"/>
<text x="280.0" y="72" font-size="18" fill="#183457" font-weight="500" text-anchor="middle">TUI</text>
<text x="280.0" y="94" font-size="14" fill="#536b87" font-weight="400" text-anchor="middle">终端</text>
<path d="M280.0 106V133" fill="none" stroke="#285fa7" stroke-width="1.2"/>
<rect x="455" y="48" width="190" height="58" rx="5" fill="#fff" stroke="#b8c6d6" stroke-width="1"/>
<text x="550.0" y="72" font-size="18" fill="#183457" font-weight="500" text-anchor="middle">Web UI</text>
<text x="550.0" y="94" font-size="14" fill="#536b87" font-weight="400" text-anchor="middle">浏览器</text>
<path d="M550.0 106V133" fill="none" stroke="#285fa7" stroke-width="1.2"/>
<rect x="725" y="48" width="190" height="58" rx="5" fill="#fff" stroke="#b8c6d6" stroke-width="1" stroke-dasharray="6 5"/>
<text x="820.0" y="72" font-size="18" fill="#536b87" font-weight="500" text-anchor="middle">Mobile UI</text>
<text x="820.0" y="94" font-size="14" fill="#536b87" font-weight="400" text-anchor="middle">未来构想</text>
<path d="M820.0 106V133" fill="none" stroke="#285fa7" stroke-width="1.2" stroke-dasharray="6 5"/>
<path d="M280.0 133H550.0" fill="none" stroke="#285fa7" stroke-width="1.2"/>
<path d="M550.0 133H820.0" fill="none" stroke="#285fa7" stroke-width="1.2" stroke-dasharray="6 5"/>
<rect x="85" y="158" width="930" height="338" rx="6" fill="#f8fafc" stroke="#dce3ec" stroke-width="1"/>
<text x="105" y="187" font-size="15" fill="#536b87" font-weight="400" text-anchor="start">你的机器 / 服务器</text>
<path d="M550.0 133V213" fill="none" stroke="#285fa7" stroke-width="1.2" marker-end="url(#arrow)"/>
<rect x="120" y="213" width="860" height="166" rx="5" fill="#fff" stroke="#9ab1cd" stroke-width="1"/>
<text x="142" y="247" font-size="26" fill="#183457" font-weight="500" text-anchor="start">Holon Runtime</text>
<text x="142" y="273" font-size="16" fill="#536b87" font-weight="400" text-anchor="start">常驻后台 · daemon 模式</text>
<text x="143" y="319" font-size="20" fill="#285fa7" font-weight="500" text-anchor="start">Agents</text>
<text x="143" y="346" font-size="16" fill="#536b87" font-weight="400" text-anchor="start">长期身份与职责</text>
<text x="418" y="319" font-size="20" fill="#285fa7" font-weight="500" text-anchor="start">WorkItems</text>
<text x="418" y="346" font-size="16" fill="#536b87" font-weight="400" text-anchor="start">目标、进度与结果</text>
<text x="693" y="319" font-size="20" fill="#285fa7" font-weight="500" text-anchor="start">Wait / Wake</text>
<text x="693" y="346" font-size="16" fill="#536b87" font-weight="400" text-anchor="start">等待条件与工作续接</text>
<path d="M550.0 379V421" fill="none" stroke="#285fa7" stroke-width="1.2" marker-end="url(#arrow)"/>
<text x="550.0" y="444" font-size="18" fill="#183457" font-weight="500" text-anchor="middle">工作区 · 文件 · 工具链</text>
<text x="550.0" y="465" font-size="14" fill="#536b87" font-weight="400" text-anchor="middle">在明确授权范围内执行</text>
</g></svg>
