<svg xmlns="http://www.w3.org/2000/svg" width="1100" height="600" viewBox="0 0 1100 600" role="img">
<title>Holon Runtime · 常驻后台与多端连接</title>
<defs><marker id="arrow" markerWidth="8" markerHeight="8" refX="6" refY="3" orient="auto-start-reverse"><path d="M0 0L6 3L0 6" fill="none" stroke="#285fa7" stroke-width="1.3"/></marker></defs>
<rect width="1100" height="600" rx="16" fill="#f7faff"/>
<g font-family="Noto Sans CJK SC, sans-serif">
<text x="48" y="32" font-size="15" fill="#536b87" font-weight="500" text-anchor="start">连接入口</text>
<rect x="185" y="54" width="190" height="68" rx="8" fill="#fff" stroke="#99b5d6" stroke-width="1.5"/>
<text x="280.0" y="83" font-size="19" fill="#183457" font-weight="600" text-anchor="middle">TUI</text>
<text x="280.0" y="106" font-size="14" fill="#536b87" font-weight="400" text-anchor="middle">终端</text>
<path d="M280.0 122V151" fill="none" stroke="#285fa7" stroke-width="1.6"/>
<rect x="455" y="54" width="190" height="68" rx="8" fill="#fff" stroke="#99b5d6" stroke-width="1.5"/>
<text x="550.0" y="83" font-size="19" fill="#183457" font-weight="600" text-anchor="middle">Web UI</text>
<text x="550.0" y="106" font-size="14" fill="#536b87" font-weight="400" text-anchor="middle">浏览器</text>
<path d="M550.0 122V151" fill="none" stroke="#285fa7" stroke-width="1.6"/>
<rect x="725" y="54" width="190" height="68" rx="8" fill="#f7faff" stroke="#8ca1b9" stroke-width="1.5" stroke-dasharray="6 5"/>
<text x="820.0" y="83" font-size="19" fill="#536b87" font-weight="600" text-anchor="middle">Mobile UI</text>
<text x="820.0" y="106" font-size="14" fill="#536b87" font-weight="400" text-anchor="middle">未来构想</text>
<path d="M820.0 122V151" fill="none" stroke="#285fa7" stroke-width="1.6" stroke-dasharray="6 5"/>
<path d="M280.0 151H550.0" fill="none" stroke="#285fa7" stroke-width="1.6"/>
<path d="M550.0 151H820.0" fill="none" stroke="#285fa7" stroke-width="1.6" stroke-dasharray="6 5"/>
<rect x="85" y="178" width="930" height="392" rx="12" fill="#eef4fc" stroke="#d0dded" stroke-width="1.5"/>
<text x="105" y="207" font-size="15" fill="#536b87" font-weight="400" text-anchor="start">你的机器 / 服务器</text>
<path d="M550.0 151V237" fill="none" stroke="#285fa7" stroke-width="1.6" marker-end="url(#arrow)"/>
<rect x="120" y="237" width="860" height="208" rx="10" fill="#fff" stroke="#6992c3" stroke-width="1.5"/>
<text x="143" y="277" font-size="32" fill="#183457" font-weight="700" text-anchor="start">Holon Runtime</text>
<text x="143" y="305" font-size="16" fill="#536b87" font-weight="400" text-anchor="start">常驻后台 · daemon 模式</text>
<rect x="143" y="337" width="263" height="79" rx="5" fill="#f2f6fc" stroke="#dce6f3" stroke-width="1.5"/>
<text x="159" y="367" font-size="23" fill="#285fa7" font-weight="600" text-anchor="start">Agents</text>
<text x="159" y="394" font-size="15" fill="#536b87" font-weight="400" text-anchor="start">长期身份与职责</text>
<rect x="418" y="337" width="263" height="79" rx="5" fill="#f2f6fc" stroke="#dce6f3" stroke-width="1.5"/>
<text x="434" y="367" font-size="23" fill="#285fa7" font-weight="600" text-anchor="start">WorkItems</text>
<text x="434" y="394" font-size="15" fill="#536b87" font-weight="400" text-anchor="start">目标、进度与结果</text>
<rect x="693" y="337" width="263" height="79" rx="5" fill="#f2f6fc" stroke="#dce6f3" stroke-width="1.5"/>
<text x="709" y="367" font-size="23" fill="#285fa7" font-weight="600" text-anchor="start">Wait / Wake</text>
<text x="709" y="394" font-size="15" fill="#536b87" font-weight="400" text-anchor="start">等待条件与工作续接</text>
<path d="M550.0 445V487" fill="none" stroke="#285fa7" stroke-width="1.6" marker-end="url(#arrow)"/>
<rect x="120" y="487" width="860" height="56" rx="8" fill="#f7faff" stroke="#c4d3e6" stroke-width="1.5"/>
<text x="550.0" y="510" font-size="18" fill="#183457" font-weight="500" text-anchor="middle">工作区 · 文件 · 工具链</text>
<text x="550.0" y="531" font-size="13" fill="#536b87" font-weight="400" text-anchor="middle">在明确授权范围内执行</text>
</g></svg>
