<svg xmlns="http://www.w3.org/2000/svg" width="1200" height="690" viewBox="0 0 1200 690" role="img" aria-labelledby="title desc">
<title id="title">From client report to GitHub Issue</title><desc id="desc">The client uploads a diagnostic report to the server. A webhook notifies the trace report Agent in Holon, which reads authorized traces, organizes context and evidence, and creates or updates a GitHub Issue for developers to investigate and fix.</desc>
<defs><marker id="arrow" markerWidth="9" markerHeight="9" refX="8" refY="4.5" orient="auto"><path d="M1 1 L8 4.5 L1 8" fill="none" stroke="#285fa7" stroke-width="1.5"/></marker></defs>
<rect width="1200" height="690" rx="16" fill="#f7faff"/>
<g font-family="Noto Sans CJK SC, sans-serif" fill="#183457">
<text x="28" y="48" font-size="27" fill="#183457" font-weight="600" text-anchor="start">From client report to GitHub Issue</text>
<text x="28" y="84" font-size="20" fill="#536b87" font-weight="400" text-anchor="start">Logs become evidence others can act on</text>
<g transform="translate(75,145)">
<rect x="8" y="0" width="40" height="64" rx="7" fill="white" stroke="#285fa7" stroke-width="1.5"/>
<path d="M20 8 H36 M23 56 H33" fill="none" stroke="#285fa7" stroke-width="2"/>
<path d="M17 35 L25 43 L40 23" fill="none" stroke="#285fa7" stroke-width="2"/>
</g>
<text x="105" y="252" font-size="25" fill="#183457" font-weight="600" text-anchor="middle">Client</text>
<text x="105" y="288" font-size="10.769230769230768" fill="#536b87" font-weight="400" text-anchor="middle">Record actions and responses</text>
<g transform="translate(305,145)">
<path d="M6 0 H40 L58 18 V64 H6 Z M40 0 V18 H58" fill="none" stroke="#285fa7" stroke-width="2"/>
<path d="M17 29 H46" fill="none" stroke="#285fa7" stroke-width="2"/>
<path d="M17 40 H38" fill="none" stroke="#285fa7" stroke-width="2"/>
<path d="M17 51 H46" fill="none" stroke="#285fa7" stroke-width="2"/>
</g>
<text x="335" y="252" font-size="24.08256880733945" fill="#183457" font-weight="600" text-anchor="middle">Diagnostic report</text>
<text x="335" y="288" font-size="20" fill="#536b87" font-weight="400" text-anchor="middle">Context + trace clues</text>
<g transform="translate(555,145)">
<rect x="0" y="0" width="64" height="17" rx="3" fill="white" stroke="#285fa7" stroke-width="1.5"/>
<path d="M8 8 H12 M20 8 H52" fill="none" stroke="#285fa7" stroke-width="2"/>
<rect x="0" y="23" width="64" height="17" rx="3" fill="white" stroke="#285fa7" stroke-width="1.5"/>
<path d="M8 31 H12 M20 31 H52" fill="none" stroke="#285fa7" stroke-width="2"/>
<rect x="0" y="46" width="64" height="17" rx="3" fill="white" stroke="#285fa7" stroke-width="1.5"/>
<path d="M8 54 H12 M20 54 H52" fill="none" stroke="#285fa7" stroke-width="2"/>
</g>
<text x="585" y="252" font-size="25" fill="#183457" font-weight="600" text-anchor="middle">Server</text>
<text x="585" y="288" font-size="14.482758620689655" fill="#536b87" font-weight="400" text-anchor="middle">Receive report / retain context</text>
<path d="M146 177 H284" fill="none" stroke="#285fa7" stroke-width="2" marker-end="url(#arrow)"/>
<text x="215.0" y="151" font-size="19" fill="#536b87" font-weight="400" text-anchor="middle">Create report</text>
<path d="M378 177 H534" fill="none" stroke="#285fa7" stroke-width="2" marker-end="url(#arrow)"/>
<text x="456.0" y="151" font-size="19" fill="#536b87" font-weight="400" text-anchor="middle">Upload report</text>
<rect x="758" y="120" width="410" height="286" rx="10" fill="#e8f0fb" stroke="#90afd4" stroke-width="1.5"/>
<text x="786" y="159" font-size="24" fill="#183457" font-weight="600" text-anchor="start">Holon · Persistent runtime</text>
<text x="786" y="197" font-size="27" fill="#285fa7" font-weight="600" text-anchor="start">trace report Agent</text>
<text x="786" y="252" font-size="20" fill="#285fa7" font-weight="600" text-anchor="start">01</text>
<text x="824" y="252" font-size="15.635491606714629" fill="#183457" font-weight="400" text-anchor="start">Read authorized traces; reconstruct actions</text>
<text x="786" y="304" font-size="20" fill="#285fa7" font-weight="600" text-anchor="start">02</text>
<text x="824" y="304" font-size="18.628571428571426" fill="#183457" font-weight="400" text-anchor="start">Find stalls and cancel / resume clues</text>
<text x="786" y="356" font-size="20" fill="#285fa7" font-weight="600" text-anchor="start">03</text>
<text x="824" y="356" font-size="19.938837920489295" fill="#183457" font-weight="400" text-anchor="start">Note log gaps and open questions</text>
<path d="M630 177 H746" fill="none" stroke="#285fa7" stroke-width="2" marker-end="url(#arrow)"/>
<text x="692" y="147" font-size="19" fill="#536b87" font-weight="400" text-anchor="middle">webhook</text>
<text x="692" y="208" font-size="18" fill="#536b87" font-weight="400" text-anchor="middle">Notify Agent</text>
<path d="M590 302 V380 H746" fill="none" stroke="#285fa7" stroke-width="2" marker-end="url(#arrow)" stroke-dasharray="6 6"/>
<text x="600" y="344" font-size="19" fill="#536b87" font-weight="400" text-anchor="start">Authorized traces</text>
<text x="600" y="370" font-size="18" fill="#536b87" font-weight="400" text-anchor="start">For Agent access</text>
<path d="M961 406 V456" fill="none" stroke="#285fa7" stroke-width="2" marker-end="url(#arrow)"/>
<text x="985" y="440" font-size="20" fill="#536b87" font-weight="400" text-anchor="start">Create / update</text>
<rect x="550" y="470" width="618" height="116" rx="10" fill="white" stroke="#c4d3e6" stroke-width="1.5"/>
<g transform="translate(574,493)">
<rect x="0" y="0" width="64" height="64" rx="10" fill="white" stroke="#285fa7" stroke-width="1.5"/>
<circle cx="17" cy="18" r="6" fill="none" stroke="#285fa7" stroke-width="2"/>
<path d="M31 18 H53 M12 36 H51 M12 48 H43" fill="none" stroke="#285fa7" stroke-width="2"/>
</g>
<text x="664" y="510" font-size="26" fill="#183457" font-weight="600" text-anchor="start">GitHub Issue</text>
<text x="664" y="548" font-size="17.53684210526316" fill="#183457" font-weight="400" text-anchor="start">Context · evidence · open questions · labels · owner</text>
<path d="M550 528 H435" fill="none" stroke="#285fa7" stroke-width="2" marker-end="url(#arrow)"/>
<text x="492" y="506" font-size="19" fill="#536b87" font-weight="400" text-anchor="middle">Handoff</text>
<text x="72" y="510" font-size="23.587628865979383" fill="#183457" font-weight="600" text-anchor="start">Developers investigate and fix</text>
<text x="72" y="548" font-size="18.029268292682925" fill="#536b87" font-weight="400" text-anchor="start">No need to gather logs and context again</text>
<path d="M28 622 H1172" fill="none" stroke="#c4d3e6" stroke-width="2"/>
<text x="28" y="658" font-size="22" fill="#536b87" font-weight="400" text-anchor="start">Clues ≠ confirmed root cause; append findings to an existing Issue.</text>
</g></svg>
